#!OML:ASF H:\Punching\Project 1\Capture day 1\Session 1\female.ASF
:FULLY-SPECIFIED
:DEGREES
1903
root 2.21788 13.8141 0.814095 11.5633 -4.18806 4.08056
lowerback -8.08546 -7.60777 -3.41586
upperback -11.8795 -9.96493 3.88891
thorax -6.81065 -4.60915 5.68534
lowerneck -5.71692 12.0938 18.4854
upperneck 31.1962 20.2797 -17.1197
head 15.9559 9.32675 -6.89682
rclavicle 2.3059e-014 3.49861e-014
rhumerus 5.26572 6.94892 -38.6692
rradius 123.258
rwrist -22.9757
rhand -32.7498 1.93497
rfingers 7.12502
rthumb -5.9727 -27.9608
lclavicle 2.3059e-014 3.49861e-014
lhumerus -0.959363 -22.1025 83.4394
lradius 137.182
lwrist -2.68462
lhand -28.5584 7.06172
lfingers 7.12502
lthumb -1.92519 37.0328
rfemur -57.8448 -0.529982 14.8063
rtibia 70.1103
rfoot -19.8361 -11.7994
rtoes -0.593227
lfemur -165.162 186.54 -200.456
ltibia 27.3533
lfoot -29.3086 32.4001
ltoes -14.3635
1904
root 2.14657 13.8524 0.933608 11.0585 -4.60968 3.91088
lowerback -8.11492 -7.63154 -2.9604
upperback -11.8679 -10.0092 3.87855
thorax -6.84928 -4.66515 5.4262
lowerneck -5.45099 12.2853 18.5619
upperneck 31.3664 20.7644 -17.4131
head 16.1803 9.52826 -6.96302
rclavicle 2.26615e-014 -5.725e-014
rhumerus 5.61959 7.53658 -38.2182
rradius 122.083
rwrist -22.6684
rhand -32.6899 2.44136
rfingers 7.12502
rthumb -5.9148 -27.4561
lclavicle 2.26615e-014 -5.725e-014
lhumerus -2.23194 -21.377 82.8993
lradius 137.181
lwrist -2.69792
lhand -28.5867 6.98396
lfingers 7.12502
lthumb -1.95253 36.9548
rfemur -56.5127 0.332483 15.1543
rtibia 69.764
rfoot -20.2636 -12.2298
rtoes -0.541103
lfemur -166.351 185.512 -199.646
ltibia 30.775
lfoot -25.3204 32.3881
ltoes -12.5505
1905
root 2.07896 13.8945 1.04833 10.5183 -5.04542 3.7073
lowerback -8.088 -7.59888 -2.41682
upperback -11.8351 -9.98275 3.84387
thorax -6.92269 -4.69177 5.1065
lowerneck -5.18285 12.449 18.6054
upperneck 31.5511 21.2106 -17.6881
head 16.3989 9.71152 -7.0262
rclavicle 7.55382e-015 2.54444e-014
rhumerus 6.01121 8.13773 -37.8462
rradius 120.865
rwrist -22.3436
rhand -32.6333 2.99725
rfingers 7.12502
rthumb -5.8602 -26.9017
lclavicle 7.55382e-015 2.54444e-014
lhumerus -3.53993 -20.6642 82.3292
lradius 137.169
lwrist -2.68324
lhand -28.5554 6.90436
lfingers 7.12502
lthumb -1.92232 36.8754
rfemur -55.0946 1.19327 15.5459
rtibia 69.296
rfoot -20.6175 -12.6179
rtoes -0.458746
lfemur -167.793 184.448 -198.799
ltibia 34.553
lfoot -20.473 32.2101
ltoes -10.1236
1906
root 2.01573 13.941 1.1579 9.95938 -5.49057 3.42345
lowerback -8.00356 -7.5081 -1.73212
upperback -11.7844 -9.8834 3.79752
thorax -7.04015 -4.69128 4.71157
lowerneck -4.90347 12.5845 18.615
upperneck 31.7411 21.6172 -17.9456
head 16.6034 9.87654 -7.08712
rclavicle -7.7526e-014 1.43125e-014
rhumerus 6.44341 8.75053 -37.5577
rradius 119.604
rwrist -21.9879
rhand -32.5482 3.55152
rfingers 7.12502
rthumb -5.77801 -26.3497
lclavicle -7.7526e-014 1.43125e-014
lhumerus -4.86265 -19.9663 81.7229
lradius 137.134
lwrist -2.66742
lhand -28.4948 6.80676
lfingers 7.12502
lthumb -1.86382 36.7784
rfemur -53.5955 2.04478 16.0391
rtibia 68.6846
rfoot -20.8789 -12.9795
rtoes -0.381614
lfemur -169.477 183.382 -197.894
ltibia 38.641
lfoot -15.0183 31.4804
ltoes -7.40663
1907
root 1.95749 13.9921 1.26203 9.40538 -5.9531 3.04377
lowerback -7.87009 -7.37568 -0.900352
upperback -11.7025 -9.7311 3.75406
thorax -7.17735 -4.67491 4.24848
lowerneck -4.65218 12.7148 18.6121
upperneck 31.9206 22.0118 -18.1994
head 16.8083 10.0337 -7.14534
rclavicle 2.46493e-014 -2.8625e-014
rhumerus 6.97623 9.3716 -37.3858
rradius 118.296
rwrist -21.5806
rhand -32.4629 4.0813
rfingers 7.12502
rthumb -5.69564 -25.8222
lclavicle 2.46493e-014 -2.8625e-014
lhumerus -6.14187 -19.2459 81.0328
lradius 137.072
lwrist -2.65783
lhand -28.4367 6.69649
lfingers 7.12502
lthumb -1.80766 36.6686
rfemur -52.0348 2.8823 16.6495
rtibia 67.9195
rfoot -21.0447 -13.3071
rtoes -0.238711
lfemur -171.4 182.356 -196.944
ltibia 42.988
lfoot -9.40879 29.8989
ltoes -4.7852
